<svg version="1.1" xmlns="http://www.w3.org/2000/svg" xmlns:xlink="http://www.w3.org/1999/xlink" x="0px" y="0px" width="100%" viewBox="0 0 171.2 81.5" enable-background="new 0 0 1080 369" xml:space="preserve" height="100%">
  <style type="text/css">
    .primary-color {
      fill: #3083DC;
    }

    .secondary-color {
      fill: #4E4187;
    }

    .class-1 {
      opacity: 0.3;
    }

    .class-7 {
      opacity: 0.8;
    }

    .class-2 {
      fill: #fff;
    }

    .class-10,
    .class-11,
    .class-12,
    .class-14,
    .class-16,
    .class-3 {
      fill: none;
    }

    .class-3 {
      stroke: #5c7690;
    }

    .class-10,
    .class-11,
    .class-12,
    .class-3 {
      stroke-miterlimit: 10;
    }

    .class-14,
    .class-15,
    .class-16,
    .class-3 {
      stroke-width: 0.5px;
    }

    .class-4 {
      fill: #ffe1d9;
    }

    .class-5 {
      fill: #ffcfbf;
    }

    .class-6 {
      fill: #fecbb6;
    }

    .class-9 {
      fill: #fecb02;
    }

    .class-10,
    .class-12 {
      stroke: #d26f51;
    }

    .class-10,
    .class-11 {
      stroke-width: 0.38px;
    }

    .class-11 {
      stroke: #000;
    }

    .class-12 {
      stroke-width: 0.19px;
    }

    .class-13 {
      opacity: 0.45;
    }

    .class-14,
    .class-15,
    .class-16 {
      stroke: #807f63;
      stroke-linejoin: round;
    }

    .class-15 {
      fill: #b8b09b;
    }

    .class-16 {
      stroke-linecap: round;
    }

    .class-17 {
      font-family: 'PT Sans', sans-serif;
      font-size: 49.87px;
      font-weight: 700;
    }

    .class-18 {
      fill: #fffdbb;
      opacity: 0.5;
    }


    /*---------------------------
    SVG Animate
    ---------------------------*/
    .ear-animation {
      transition: all ease-in-out 2s;
      transform-origin: 50% 50%;
      animation: ear-animation 1.5s linear infinite alternate;
    }

    .face-animation {
      transition: all ease-in-out 2s;
      transform-origin: 50% 50%;
      animation: move 1.5s linear infinite alternate;
    }

    .neck-animation {
      transition: all ease-in-out 2s;
      transform-origin: 50% 50%;
      animation: neck 1.5s linear infinite alternate;
    }


    @keyframes ear-animation {
      0% {
        transform: translateX(-0.3px) translateY(0.6px);
      }
      30% {
        transform: translateX(-0.3px) translateY(0.6px);
      }

      60% {
        transform: translateX(-0.7px) translateY(0px);
      }

      70% {
        transform: translateX(-0.7px) translateY(-0.3px);
      }
      100% {
        transform: translateX(-0.7px) translateY(-0.3px);
      }
    }

    @keyframes move {
      0% {
        transform: translateX(-0.3px) translateY(0.6px);
      }
      30% {
        transform: translateX(-0.3px) translateY(0.6px);
      }

      60% {
        transform: translateX(2px) translateY(0px);
      }

      70% {
        transform: translateX(2px) translateY(-0.3px);
      }
      100% {
        transform: translateX(2px) translateY(-0.3px);
      }
    }

    @keyframes neck {
      0% {
        transform: translateY(0.7px);
      }
      50% {
        transform: translateY(0.7px);
      }
      100% {
        transform: translateY(0px);
      }
    }
  </style>
  <path id="c-1" class="secondary-color class-1" d="M46.62,52.5c5.78,4.9,21.14,8.4,39.19,8.4s33.41-3.5,39.19-8.4c-5.78-4.9-21.14-8.4-39.19-8.4S52.41,47.6,46.62,52.5Z"></path>
  <path class="class-2" d="M99.73,47.71H68.65a7.13,7.13,0,0,0-7.13,7.13V60a152.58,152.58,0,0,0,24.3,1.83,157.87,157.87,0,0,0,21.05-1.35V54.84A7.13,7.13,0,0,0,99.73,47.71Z"></path>
  <path class="class-3" d="M123.56,55.81C115,58.94,101.27,61,85.81,61c-26,0-47-5.71-47-12.76,0-3.45,5.05-6.58,13.25-8.88"></path>
  <path class="class-3" d="M55.37,38.47a140,140,0,0,1,30.44-3c26,0,47,5.71,47,12.76,0,2.4-2.44,4.65-6.69,6.57"></path>
  <path class="class-3" d="M53.41,38.95l.94-.24"></path>
  <path class="class-4" d="M91.68,47.71l-.75-11.2L79.15,43.84l-1.69,3.87H75.79c0,3.36,3.76,6.08,8.4,6.08s8.4-2.72,8.4-6.08Z"></path>
  <path class="class-5 neck-animation" d="M78,46.53a27.19,27.19,0,0,0,6.41.82c3.1,0,7.11-2.19,7.11-2.19l-.42-6.2L79.15,43.84Z"></path>
  <polygon class="ear-animation" points="92.59 32.22 92.59 28.5 76.77 27.71 76.77 32.22 92.59 32.22"></polygon>
  <circle class="class-6 ear-animation" cx="78.06" cy="34.04" r="2.47"></circle>
  <path class="class-4" d="M81.74,57.06,60.63,49.72h0A6.72,6.72,0,1,0,57.7,62.49H93.25C93.25,56.78,81.74,57.06,81.74,57.06Z"></path>
  <path class="class-4" d="M77.46,25H90.92a0,0,0,0,1,0,0V39.38a6.73,6.73,0,0,1-6.73,6.73h0a6.73,6.73,0,0,1-6.73-6.73V25A0,0,0,0,1,77.46,25Z"></path>
  <rect id="c-2" class="primary-color class-7" x="74.82" y="26.48" width="19.14" height="2.45" transform="translate(1.29 -3.65) rotate(2.49)"></rect>
  <path id="c-3" class="primary-color class-7" d="M84.36,18.69h.5a7.8,7.8,0,0,1,7.8,7.8v0a0,0,0,0,1,0,0H76.56a0,0,0,0,1,0,0v0A7.8,7.8,0,0,1,84.36,18.69Z" transform="translate(1.06 -3.66) rotate(2.49)"></path>
  <polygon id="c-4" class="primary-color class-8" points="82.44 23.89 92.18 24.32 92.59 24.34 92.48 26.84 80.96 26.33 82.44 23.89"></polygon>
  <circle class="class-9 face-animation" cx="78.72" cy="23.73" r="3.73" transform="translate(51.58 101.34) rotate(-87.51)"></circle>
  <circle class="class-2 face-animation" cx="78.72" cy="23.73" r="2.36" transform="translate(51.58 101.34) rotate(-87.51)"></circle>
  <circle class="class-4 ear-animation" cx="90.92" cy="34.04" r="2.47"></circle>
  <path class="class-4" d="M112.2,53l-9.87-21.92-3-5.48-11.86-.22,7.42,3.35H91.55l5.82,4.58,2,22.26h0A6.72,6.72,0,1,0,112.2,53Z"></path>
  <ellipse class="face-animation" cx="80.09" cy="33.12" rx="0.53" ry="0.59"></ellipse>
  <ellipse class="face-animation" cx="86.34" cy="33.12" rx="0.53" ry="0.59"></ellipse>
  <polyline class="class-10 face-animation" points="84.19 31.08 81.74 37.01 84.39 37.01"></polyline>
  <path class="class-10 face-animation" d="M83.06,40.36a4,4,0,0,1,2.75-1"></path>
  <line class="class-11 face-animation" x1="81.07" y1="30.33" x2="78.47" y2="30.58"></line>
  <line class="class-11 face-animation" x1="86.34" y1="30.45" x2="88.15" y2="31.08"></line>
  <line class="class-12" x1="106.86" y1="47.82" x2="110.99" y2="46.11"></line>
  <line class="class-12" x1="107.43" y1="49.9" x2="111.55" y2="48.19"></line>
  <line class="class-12" x1="107.99" y1="51.98" x2="112.11" y2="50.27"></line>
  <g class="class-13">
    <rect class="class-14" x="85.81" y="2.46" width="10.77" height="3.5"></rect>
    <rect class="class-15" x="96.58" y="2.46" width="10.77" height="3.5"></rect>
    <rect class="class-14" x="92.19" y="5.95" width="10.77" height="3.5"></rect>
    <line class="class-16" x1="107.36" y1="5.95" x2="109.63" y2="5.95"></line>
    <line class="class-16" x1="110.68" y1="5.95" x2="111.57" y2="5.95"></line>
  </g>
  <g class="class-13">
    <rect class="class-16" x="125" y="23.12" width="10.77" height="3.5"></rect>
    <rect class="class-15" x="130.39" y="26.62" width="10.77" height="3.5"></rect>
    <rect class="class-16" x="119.62" y="26.62" width="10.77" height="3.5"></rect>
    <line class="class-16" x1="141.16" y1="26.62" x2="145.73" y2="26.62"></line>
    <line class="class-16" x1="125" y1="23.12" x2="115.4" y2="23.12"></line>
    <line class="class-16" x1="117.95" y1="26.62" x2="115.4" y2="26.62"></line>
  </g>
  <g class="class-13">
    <rect class="class-16" x="39.34" y="16.12" width="10.77" height="3.5"></rect>
    <rect class="class-16" x="39.34" y="23.11" width="10.77" height="3.5"></rect>
    <rect class="class-16" x="50.11" y="23.11" width="10.77" height="3.5"></rect>
    <rect class="class-16" x="50.11" y="16.12" width="10.77" height="3.5"></rect>
    <rect class="class-15" x="44" y="19.61" width="10.77" height="3.5"></rect>
    <rect class="class-16" x="33.23" y="19.61" width="10.77" height="3.5"></rect>
    <line class="class-16" x1="60.89" y1="19.61" x2="65.51" y2="19.61"></line>
    <line class="class-16" x1="39.34" y1="16.12" x2="35.46" y2="16.12"></line>
    <line class="class-16" x1="36.45" y1="26.61" x2="33.23" y2="26.61"></line>
    <line class="class-16" x1="63.2" y1="23.11" x2="65.51" y2="23.11"></line>
  </g>
  <polyline class="class-3" points="115.4 58.12 115.4 38.27 120.2 37.01"></polyline>
  <polyline class="class-3" points="129.01 53.21 129.01 43.14 131.74 42.13"></polyline>
  <path class="class-3" d="M115.4,42.13a53.27,53.27,0,0,1,8,2A42,42,0,0,1,129,47"></path>
  <path class="class-3" d="M115.4,47.34a53.27,53.27,0,0,1,8,2A42,42,0,0,1,129,52.22"></path>
  <path class="class-3" d="M115.4,52.56a53.27,53.27,0,0,1,8,2l1,.42"></path>
  <path class="class-18 face-animation" d="M78.84,26.09l0-4.71L68.05,18.32a.91.91,0,0,0-.45-.13c-1.17,0-2.11,2.46-2.11,5.5s.95,5.5,2.11,5.5a.9.9,0,0,0,.44-.12Z"></path>
  <path class="class-5" d="M57.7,62.49H93.25A3.67,3.67,0,0,0,92.92,61H53.43A6.69,6.69,0,0,0,57.7,62.49Z"></path>
  <path class="class-12" d="M88.15,60.27s1.7.95,1.7,2.22"></path>
  <path class="class-5" d="M101.81,61a6.68,6.68,0,0,0,8.51,0Z"></path>
  <polygon class="class-5" points="90.92 30.25 77.46 29.69 77.46 28.64 90.92 29.22 90.92 30.25"></polygon>
</svg>